<svg id="Layer_1" data-name="Layer 1" xmlns="http://www.w3.org/2000/svg" viewBox="0 0 262.53 360.36">
  <defs>
    <style>
      .cls-1 {
        fill: #eb5b28;
      }

      .cls-2 {
        fill: #e8d21b;
      }

      .cls-3 {
        fill: #6dc3c0;
      }

      .cls-4 {
        fill: #e2314b;
      }

      .cls-5 {
        fill: #623719;
      }
    </style>
  </defs>
  <title>ballon</title>
  <g>
    <polygon class="cls-1" points="166.87 321.42 162.66 321.43 162.45 253.09 166.66 253.09 166.87 321.42"/>
    <rect class="cls-1" x="139.95" y="253.16" width="4.24" height="68.33" transform="translate(-1.04 0.51) rotate(-0.21)"/>
    <polygon class="cls-1" points="121.68 321.55 117.46 321.56 117.25 253.24 121.47 253.22 121.68 321.55"/>
    <polygon class="cls-1" points="99.09 321.63 94.85 321.63 94.65 253.3 98.86 253.28 99.09 321.63"/>
    <g>
      <path class="cls-2" d="M148,192.38C198.4,83.29,153,12,136.24.21,134.46.16,132.72,0,130.94,0c-4,0-7.93.23-11.83.55-16.84,12.59-60.49,84.27-9,192.08,9.72,20.32,11.65,43.81,10.48,67.49l17.74-.05C136.88,236.38,138.5,212.85,148,192.38Z"/>
      <path class="cls-3" d="M110.15,192.63C58.62,84.82,102.27,13.14,119.11.55c-3.58.28-7.08.74-10.57,1.26-37.72,7.8-76.43,41.4-73.74,106.62,1.22,29.74,27.62,64.38,43.37,84.88,15.61,20.33,22.73,33.49,24.88,66.85l17.58-.05C121.79,236.43,119.87,212.94,110.15,192.63Z"/>
      <path class="cls-1" d="M34.79,108.43c-2.68-65.23,36-98.82,73.74-106.62C46.76,11.05-.17,56.91,0,112.09c.12,39.48,24.36,74,60.75,93.78,16,11.73,28.24,23.3,30.1,54.34l12.19,0c-2.16-33.36-9.27-46.52-24.88-66.85C62.41,172.82,36,138.17,34.79,108.43Z"/>
      <path class="cls-1" d="M222.23,107.24c2-70.29-43.56-103.31-83.8-106.94L136.24.21C153,12,198.4,83.29,148,192.38c-9.46,20.47-11.08,44-9.6,67.68l17.55-.06c1.72-33.52,8.66-46.77,24.05-67.34S221.39,137,222.23,107.24Z"/>
      <path class="cls-4" d="M138.43.3c40.24,3.63,85.79,36.65,83.8,106.94C221.39,137,195.44,172,180,192.66S157.63,226.48,155.91,260l14.84,0c.62-17,8.52-35,32.86-55.2,35.59-20.08,59.05-54.45,58.92-93.48C262.35,51.75,207.43,3.42,138.43.3Z"/>
    </g>
    <polygon class="cls-5" points="170.01 311.43 91.98 311.67 98.01 360.36 164.27 360.15 170.01 311.43"/>
  </g>
</svg>
