<svg id="Layer_1" data-name="Layer 1" xmlns="http://www.w3.org/2000/svg" viewBox="0 0 828.42 620.85">
  <defs>
    <style>
      .cls-1 {
        fill: #694b3d;
      }

      .cls-2 {
        fill: #dfa276;
      }

      .cls-3 {
        fill: #edc7ae;
      }

      .cls-4 {
        fill: #fff;
      }

      .cls-5 {
        fill: #6c6a20;
      }

      .cls-6 {
        fill: #231f20;
      }
    </style>
  </defs>
  <title>bird</title>
  <path class="cls-1" d="M493.53,49.81h0c-1.16.26-2.32.53-3.49.86-3.81,1-7.65,2.06-11.44,3.32-1.27.43-2.52.87-3.77,1.35a66.32,66.32,0,0,0-31.09,24.39c-.82,1.17-1.58,2.35-2.32,3.56-.42.7-.81,1.41-1.21,2.12-.39-.71-.79-1.42-1.21-2.12-.74-1.21-1.5-2.4-2.32-3.56A66.31,66.31,0,0,0,405.6,55.33c-1.25-.48-2.5-.92-3.77-1.35-3.79-1.26-7.63-2.32-11.44-3.32-1.18-.33-2.34-.6-3.49-.86h0c-.66-.14-71.52-16.62-86.5-49.81,0,0,29.6,100.86,80.32,124.31v0a80.5,80.5,0,0,0,20.05,7.18c1.3.28,2.59.51,3.89.72,1.61.27,3.26.49,4.93.62a57.44,57.44,0,0,0,7.65.21c8.74-.36,17.25-2.9,23-9.2,5.73,6.3,14.24,8.84,23,9.2a57.43,57.43,0,0,0,7.65-.21c1.67-.13,3.32-.36,4.93-.62,1.3-.21,2.58-.44,3.89-.72a80.52,80.52,0,0,0,20-7.18v0C550.43,100.86,580,0,580,0,565.05,33.19,494.19,49.67,493.53,49.81Z"/>
  <path class="cls-1" d="M471.37,391.89c31.53,18.62-29.8,56.77-30.21,18.78.41,38-61.72,1.29-30.6-18.07-31.12,19.36-31.92-55.48-.39-36.86C378.64,337.13,440,299,440.37,337,440,299,502.1,335.68,471,355,502.1,335.68,502.9,410.51,471.37,391.89Z"/>
  <path class="cls-2" d="M469.45,375.61c29.56,17.45-27.93,53.21-28.31,17.61.38,35.6-57.85,1.2-28.68-16.94-29.17,18.14-29.92-52-.37-34.55-29.55-17.45,27.94-53.21,28.32-17.61-.38-35.6,57.85-1.2,28.68,16.94C498.25,322.92,499,393.07,469.45,375.61Z"/>
  <path class="cls-2" d="M324.93,39.24s98.75,101.77,231.27,0c0,0,33.78,300-115.64,310.86C440.56,350.1,293.74,366.84,324.93,39.24Z"/>
  <path class="cls-3" d="M355.34,220.91s72.15,36.37,169,0c0,0,24.69,107.24-84.5,111.1C439.84,332,332.55,338,355.34,220.91Z"/>
  <polygon class="cls-1" points="530.05 92.11 513.11 82.89 529.57 72.83 546.03 62.76 546.52 82.05 547 101.34 530.05 92.11"/>
  <path class="cls-2" d="M417.1,310.11a40.85,40.85,0,0,0,4.17,2.5,9.34,9.34,0,0,0,3.84,1.08,7.72,7.72,0,0,0,3.76-.95,41.75,41.75,0,0,0,4.11-2.63,12,12,0,0,1-1.1,3,10.87,10.87,0,0,1-1.75,2.46,7.72,7.72,0,0,1-2.35,1.71,6,6,0,0,1-2.74.57,7.42,7.42,0,0,1-5-2.39,11.5,11.5,0,0,1-1.78-2.38A10.82,10.82,0,0,1,417.1,310.11Z"/>
  <path class="cls-3" d="M481,86a65.49,65.49,0,0,0-40.33,13.63A65.49,65.49,0,0,0,400.39,86c-34.76,0-62.93,26.26-62.93,58.65s28.18,58.66,62.93,58.66a65.48,65.48,0,0,0,40.33-13.63A65.48,65.48,0,0,0,481,203.33c34.76,0,62.93-26.26,62.93-58.66S515.8,86,481,86Z"/>
  <path class="cls-2" d="M447.67,309.75a40.16,40.16,0,0,0,4.17,2.73,8.76,8.76,0,0,0,3.84,1.18,7.2,7.2,0,0,0,3.76-1,41.92,41.92,0,0,0,4.11-2.88,13.91,13.91,0,0,1-1.1,3.23,11.9,11.9,0,0,1-1.75,2.69,7.91,7.91,0,0,1-2.35,1.87,5.58,5.58,0,0,1-2.74.62,7.2,7.2,0,0,1-5-2.62,13.09,13.09,0,0,1-2.95-5.78Z"/>
  <path class="cls-2" d="M397.49,282.49a40.11,40.11,0,0,0,3.17,3.69,9.27,9.27,0,0,0,3.3,2.24,7.67,7.67,0,0,0,3.87.29,41.65,41.65,0,0,0,4.73-1.2,12.08,12.08,0,0,1-2,2.45,10.92,10.92,0,0,1-2.43,1.78,7.8,7.8,0,0,1-2.77.88,6.08,6.08,0,0,1-2.78-.33,7.45,7.45,0,0,1-4-3.85,11.6,11.6,0,0,1-.94-2.82A10.89,10.89,0,0,1,397.49,282.49Z"/>
  <path class="cls-2" d="M431.3,287.57a40.46,40.46,0,0,0,4.17,2.5,9.32,9.32,0,0,0,3.84,1.08,7.68,7.68,0,0,0,3.76-.95,40.86,40.86,0,0,0,4.1-2.63,12.1,12.1,0,0,1-1.1,3,10.91,10.91,0,0,1-1.75,2.46,7.85,7.85,0,0,1-2.35,1.71,6.08,6.08,0,0,1-2.74.57,7.44,7.44,0,0,1-5-2.39,11.41,11.41,0,0,1-1.78-2.37A11,11,0,0,1,431.3,287.57Z"/>
  <path class="cls-2" d="M467.56,286.27a40,40,0,0,0,4.43,2.3,8.67,8.67,0,0,0,3.93.78,7.15,7.15,0,0,0,3.64-1.41,41.85,41.85,0,0,0,3.79-3.28,14,14,0,0,1-.77,3.32,11.81,11.81,0,0,1-1.47,2.85,7.91,7.91,0,0,1-2.15,2.1,5.61,5.61,0,0,1-2.66.89,7.2,7.2,0,0,1-5.23-2.1,12.83,12.83,0,0,1-2-2.4A12.65,12.65,0,0,1,467.56,286.27Z"/>
  <path class="cls-2" d="M379.35,256a41.08,41.08,0,0,0,3.17,3.69,9.32,9.32,0,0,0,3.3,2.23,7.66,7.66,0,0,0,3.87.29,41.08,41.08,0,0,0,4.73-1.2,12.11,12.11,0,0,1-2,2.46,10.81,10.81,0,0,1-2.44,1.78,7.72,7.72,0,0,1-2.77.88,6.09,6.09,0,0,1-2.78-.32,7.47,7.47,0,0,1-4-3.85,11.53,11.53,0,0,1-.94-2.82A11,11,0,0,1,379.35,256Z"/>
  <path class="cls-2" d="M416.51,264.7a41.17,41.17,0,0,0,4.17,2.5,9.29,9.29,0,0,0,3.84,1.08,7.67,7.67,0,0,0,3.76-.94,42.47,42.47,0,0,0,4.11-2.63,12.06,12.06,0,0,1-1.1,3,11,11,0,0,1-1.75,2.46,7.78,7.78,0,0,1-2.35,1.7,6.06,6.06,0,0,1-2.74.57,7.44,7.44,0,0,1-5-2.4,11.5,11.5,0,0,1-1.78-2.37A10.9,10.9,0,0,1,416.51,264.7Z"/>
  <path class="cls-2" d="M457.44,264.34a39.87,39.87,0,0,0,4.17,2.73,8.69,8.69,0,0,0,3.84,1.18,7.18,7.18,0,0,0,3.77-1,42.45,42.45,0,0,0,4.1-2.88,14.28,14.28,0,0,1-1.1,3.22,11.93,11.93,0,0,1-1.75,2.69,7.83,7.83,0,0,1-2.35,1.87,5.61,5.61,0,0,1-2.74.62,7.22,7.22,0,0,1-5-2.62,13.16,13.16,0,0,1-2.95-5.78Z"/>
  <path class="cls-2" d="M491.52,262.39a40.56,40.56,0,0,0,4.64,1.83,8.73,8.73,0,0,0,4,.38,7.19,7.19,0,0,0,3.48-1.77,41.36,41.36,0,0,0,3.44-3.65,14.1,14.1,0,0,1-.43,3.38,11.8,11.8,0,0,1-1.17,3,7.88,7.88,0,0,1-1.92,2.3A5.61,5.61,0,0,1,501,269a7.22,7.22,0,0,1-5.42-1.56,13,13,0,0,1-4.06-5.07Z"/>
  <circle class="cls-4" cx="392.79" cy="144.68" r="43.18"/>
  <circle class="cls-4" cx="487.15" cy="144.68" r="43.18"/>
  <polygon class="cls-1" points="440.71 186.84 457.9 186.84 449.31 201.72 440.71 216.61 432.12 201.72 423.53 186.84 440.71 186.84"/>
  <polygon class="cls-1" points="350.29 88.82 367.24 79.6 350.77 69.54 334.31 59.48 333.83 78.76 333.35 98.05 350.29 88.82"/>
  <path class="cls-1" d="M366.42,256.32h0c.27-1,.53-2.06.76-3.13.78-3.44,1.53-6.93,2.1-10.46.18-1.18.35-2.35.49-3.55a59.4,59.4,0,0,0-6.52-34.79c-.59-1.13-1.21-2.23-1.87-3.31-3.93-6.47-9.11-12-15.43-15.42a26.36,26.36,0,0,0-3.75-1.68,22.28,22.28,0,0,0-5.17-1.23,23.58,23.58,0,0,0-2.64-.11c-9.78.37-16.83,7-21.53,15.16a52.74,52.74,0,0,0-3,6.16c-.58,1.38-1.09,2.78-1.54,4.17-.37,1.12-.72,2.24-1,3.38a72.39,72.39,0,0,0-2.59,18.9l0,0c-2.36,50,65.52,115.25,65.52,115.25C350,320,366.27,256.9,366.42,256.32Z"/>
  <path class="cls-1" d="M515,256.48h0c-.25-1-.49-2.07-.7-3.15-.71-3.45-1.38-7-1.87-10.5-.16-1.19-.3-2.36-.41-3.56a59.39,59.39,0,0,1,7.26-34.64c.62-1.13,1.26-2.2,1.94-3.28,4.08-6.38,9.37-11.81,15.76-15.08a26,26,0,0,1,3.79-1.6,22,22,0,0,1,5.19-1.11,22.72,22.72,0,0,1,2.64,0c9.77.58,16.68,7.35,21.19,15.63a51.84,51.84,0,0,1,2.86,6.23c.55,1.39,1,2.8,1.45,4.2.35,1.13.67,2.25,1,3.41a72,72,0,0,1,2.18,19l0,0c1.27,50-68,113.81-68,113.81C530,320.52,515.1,257.07,515,256.48Z"/>
  <path class="cls-5" d="M220,598.27s60.56-147.33-80.39-162.5C139.65,435.77,41.38,530.38,220,598.27Z"/>
  <path class="cls-5" d="M322.4,620.85s73.11-80.91-14.19-123.3C308.21,497.55,223,535.77,322.4,620.85Z"/>
  <path class="cls-5" d="M160.72,161.32s-28.34,51.5,22.71,62.93C183.43,224.25,223.4,193.65,160.72,161.32Z"/>
  <path class="cls-5" d="M561.3,559.76s14.17-48.39-30.7-48.48C530.6,511.28,502.81,544.32,561.3,559.76Z"/>
  <path class="cls-5" d="M452.87,557.09s27.47-67.51-37-74.22C415.82,482.87,371,526.32,452.87,557.09Z"/>
  <path class="cls-5" d="M551.93,452.16S492.1,417.22,477.1,477C477.1,477,512,525,551.93,452.16Z"/>
  <path class="cls-5" d="M273.76,177.48s-40.24-22.91-49.83,17.17C223.94,194.65,247.58,226.48,273.76,177.48Z"/>
  <path class="cls-5" d="M136,133.1S110.61,146,128,164.52C128,164.52,152.33,163.17,136,133.1Z"/>
  <path class="cls-5" d="M776.07,422s14.17-48.39-30.7-48.48C745.37,373.57,717.58,406.61,776.07,422Z"/>
  <path class="cls-5" d="M825,332.43s-40.5-8-37.28,28.6C787.72,361,816.71,381.26,825,332.43Z"/>
  <path class="cls-5" d="M26.91,211s31.28,81.27,93,34.36C119.87,245.4,123.37,170.92,26.91,211Z"/>
  <path class="cls-5" d="M78.5,152.69s-2.63,41.2,33.23,33.22C111.73,185.91,128,154.52,78.5,152.69Z"/>
  <path class="cls-5" d="M216.3,114.51s-19.2,27.64,9.18,37.18C225.48,151.69,250.06,136.65,216.3,114.51Z"/>
  <g>
    <path class="cls-6" d="M201.24,380.59a957.37,957.37,0,0,1,102.89-16.39c34.65-3.74,69.52-6.06,104.46-7.37,69.89-2.6,140-1.32,210,2.19s140,9.37,209.79,16.74c-69.52-9.67-139.3-17.83-209.33-23.69s-140.32-9.45-210.79-9.17c-35.23.16-70.5,1.33-105.75,4A976,976,0,0,0,197.07,360.1c-17.49,3.27-34.92,7.16-52.21,11.92A434.49,434.49,0,0,0,93.65,389.4c-1.34.56-2.68,1.14-4,1.72q17.84-22.74,34.24-46.4c.35-.41.69-.83,1-1.25a32.49,32.49,0,0,0,2.29-3.53c22.84-33.12,44.09-67.19,64.36-101.77,21-35.94,41-72.45,60.24-109.3-21.26,35.73-43.21,71-66.15,105.62q-24.08,36.29-49.8,71.36.12-1.4.22-2.8a301.8,301.8,0,0,0-.79-45.12c-1.24-14.89-3.18-29.66-5.5-44.33s-5.06-29.27-8.07-43.79c1.86,14.71,3.44,29.45,4.61,44.2s1.93,29.51,2,44.23a293.45,293.45,0,0,1-2.64,43.68,117.7,117.7,0,0,1-4.78,20.62,54.59,54.59,0,0,1-2.93,7c-1.55,2-3.09,4-4.65,6-12.73,16.27-25.54,32.5-39.51,47.6C57.14,401.12,6.29,438.72,0,443.4V484c29.69-17,69.21-40.06,72-41.14a145.82,145.82,0,0,1,27.7-7.23c19.4-3.25,39.71-4,60-3.62,15.92.34,31.9,1.44,47.89,3.06q2.9,1,5.78,2c19.75,7.35,38.84,17,57.45,27.47s36.74,22,54.55,33.92,35.27,24.47,52.5,37.31c-16.51-13.76-33.29-27.2-50.48-40.15s-34.77-25.43-53-37.06c-10.7-6.8-21.62-13.34-32.86-19.36q20.31,2.9,40.55,6.59c40.67,7.43,81.08,16.87,121.2,27.46s80,22.39,119.62,35c-38.86-14.76-78-28.77-117.65-41.64S325.68,442,285,432.19c-20.33-4.88-40.81-9.28-61.5-12.91s-41.58-6.53-62.74-8.16A370.48,370.48,0,0,0,106,410.6a416.87,416.87,0,0,1,45.25-16.85C167.63,388.64,184.35,384.32,201.24,380.59Z"/>
    <path class="cls-1" d="M53.17,454.26a1.1,1.1,0,0,0-.12.18s0,0,0,0l0,0,.16-.23h0Z"/>
  </g>
  <g>
    <g>
      <path class="cls-6" d="M405.07,353.22c-2.34,9.62-9,16.41-14.92,15.15s-8.79-10.06-6.45-19.68,9-16.41,14.92-15.16S407.41,343.6,405.07,353.22Z"/>
      <ellipse class="cls-6" cx="410.14" cy="350.95" rx="10.95" ry="17.86"/>
      <path class="cls-6" d="M438.09,349.45c1.55,9.76-2,18.34-8,19.17s-12.1-6.41-13.65-16.16,2-18.35,8-19.18S436.54,339.69,438.09,349.45Z"/>
    </g>
    <g>
      <path class="cls-6" d="M468,353.22c-2.34,9.62-9,16.41-14.92,15.15s-8.79-10.06-6.45-19.68,9-16.41,14.92-15.16S470.36,343.6,468,353.22Z"/>
      <ellipse class="cls-6" cx="473.09" cy="350.95" rx="10.95" ry="17.86"/>
      <path class="cls-6" d="M501,349.45c1.55,9.76-2,18.34-8,19.17s-12.1-6.41-13.65-16.16,2-18.35,8-19.18S499.49,339.69,501,349.45Z"/>
    </g>
  </g>
  <g>
    <g>
      <path class="cls-6" d="M606.39,354.33c-2,6.52-6.86,10.91-10.86,9.81s-5.63-7.27-3.64-13.78,6.86-10.91,10.86-9.81S608.38,347.81,606.39,354.33Z"/>
      <ellipse class="cls-6" cx="609.96" cy="352.97" rx="12.3" ry="7.54" transform="translate(221.77 941.15) rotate(-86.63)"/>
      <path class="cls-6" d="M629.23,353.07c.67,6.77-2.14,12.52-6.29,12.85s-8.05-4.89-8.72-11.66,2.14-12.52,6.28-12.85S628.55,346.3,629.23,353.07Z"/>
    </g>
    <g>
      <path class="cls-6" d="M649.64,356.87c-2,6.52-6.85,10.91-10.86,9.81s-5.63-7.26-3.64-13.78S642,342,646,343.08,651.63,350.35,649.64,356.87Z"/>
      <ellipse class="cls-6" cx="653.21" cy="355.51" rx="12.3" ry="7.54" transform="translate(260.03 986.77) rotate(-86.64)"/>
      <path class="cls-6" d="M672.48,355.61c.67,6.77-2.14,12.52-6.29,12.85s-8.05-4.89-8.73-11.66,2.14-12.52,6.29-12.85S671.81,348.84,672.48,355.61Z"/>
    </g>
  </g>
</svg>
