<svg id="Layer_1" data-name="Layer 1" xmlns="http://www.w3.org/2000/svg" viewBox="0 0 142.38 170.3">
  <defs>
    <style>
      .cls-1 {
        fill: #424755;
      }

      .cls-2 {
        fill: #626876;
      }

      .cls-3 {
        fill: #d8d9d9;
      }

      .cls-4 {
        fill: #44a7df;
      }

      .cls-5 {
        fill: #f4f4f4;
      }

      .cls-6 {
        fill: #bf71ac;
      }

      .cls-7 {
        fill: #2d2f3a;
      }
    </style>
  </defs>
  <title>calculator</title>
  <g>
    <g>
      <path class="cls-1" d="M96.45,168.27,8.65,145.05A9.41,9.41,0,0,1,2,133.6L34.56,8.72A9.33,9.33,0,0,1,45.92,2l87.8,23.21a9.41,9.41,0,0,1,6.64,11.45L107.82,161.58A9.33,9.33,0,0,1,96.45,168.27Z"/>
      <path class="cls-2" d="M96,169.93,8.22,146.72A11.11,11.11,0,0,1,.36,133.17L32.91,8.28A11,11,0,0,1,46.36.37l87.8,23.21A11.11,11.11,0,0,1,142,37.13L109.47,162A11,11,0,0,1,96,169.93ZM45.49,3.69a7.6,7.6,0,0,0-9.28,5.46L3.67,134a7.67,7.67,0,0,0,5.42,9.35l87.8,23.21a7.6,7.6,0,0,0,9.28-5.46L138.71,36.25a7.67,7.67,0,0,0-5.42-9.35Z"/>
    </g>
    <g>
      <g>
        <path class="cls-3" d="M42.29,68.48l-12.2-3.22a3.2,3.2,0,0,1-2.26-3.9l1.08-4.16a3.18,3.18,0,0,1,3.87-2.28L45,58.14A3.21,3.21,0,0,1,47.25,62l-1.09,4.16A3.18,3.18,0,0,1,42.29,68.48Z"/>
        <path class="cls-3" d="M67.09,75,54.89,71.82a3.21,3.21,0,0,1-2.26-3.9l1.09-4.16a3.18,3.18,0,0,1,3.87-2.28L69.78,64.7A3.21,3.21,0,0,1,72,68.6L71,72.76A3.18,3.18,0,0,1,67.09,75Z"/>
        <path class="cls-3" d="M91.88,81.6,79.69,78.37a3.21,3.21,0,0,1-2.26-3.9l1.08-4.16A3.18,3.18,0,0,1,82.39,68l12.19,3.22a3.21,3.21,0,0,1,2.26,3.9l-1.09,4.16A3.18,3.18,0,0,1,91.88,81.6Z"/>
        <path class="cls-4" d="M116.68,88.15l-12.2-3.23a3.2,3.2,0,0,1-2.26-3.9l1.08-4.16a3.18,3.18,0,0,1,3.87-2.28l12.19,3.23a3.21,3.21,0,0,1,2.27,3.9l-1.09,4.16A3.18,3.18,0,0,1,116.68,88.15Z"/>
      </g>
      <g>
        <path class="cls-5" d="M37.71,86.07,25.51,82.85a3.21,3.21,0,0,1-2.26-3.9l1.08-4.16a3.18,3.18,0,0,1,3.87-2.28L40.4,75.73a3.21,3.21,0,0,1,2.26,3.9l-1.09,4.16A3.18,3.18,0,0,1,37.71,86.07Z"/>
        <path class="cls-5" d="M62.5,92.63,50.31,89.4A3.21,3.21,0,0,1,48,85.5l1.08-4.16A3.18,3.18,0,0,1,53,79.06L65.2,82.29a3.21,3.21,0,0,1,2.26,3.9l-1.09,4.16A3.17,3.17,0,0,1,62.5,92.63Z"/>
        <path class="cls-5" d="M87.3,99.18,75.11,96a3.2,3.2,0,0,1-2.26-3.9l1.08-4.16a3.18,3.18,0,0,1,3.87-2.28L90,88.84a3.21,3.21,0,0,1,2.26,3.9l-1.09,4.16A3.18,3.18,0,0,1,87.3,99.18Z"/>
        <path class="cls-6" d="M112.1,105.74,99.9,102.52a3.21,3.21,0,0,1-2.26-3.9l1.08-4.16a3.18,3.18,0,0,1,3.88-2.28l12.19,3.22a3.21,3.21,0,0,1,2.26,3.9L116,103.46A3.18,3.18,0,0,1,112.1,105.74Z"/>
      </g>
      <g>
        <path class="cls-5" d="M33.12,103.66l-12.2-3.22a3.21,3.21,0,0,1-2.26-3.9l1.08-4.16a3.18,3.18,0,0,1,3.87-2.28l12.19,3.22a3.21,3.21,0,0,1,2.26,3.9L37,101.38A3.18,3.18,0,0,1,33.12,103.66Z"/>
        <path class="cls-5" d="M57.92,110.22,45.72,107a3.2,3.2,0,0,1-2.26-3.9l1.08-4.16a3.18,3.18,0,0,1,3.88-2.28l12.19,3.22a3.21,3.21,0,0,1,2.26,3.9l-1.08,4.16A3.18,3.18,0,0,1,57.92,110.22Z"/>
        <path class="cls-5" d="M82.72,116.77l-12.19-3.22a3.21,3.21,0,0,1-2.26-3.9l1.08-4.16a3.18,3.18,0,0,1,3.88-2.28l12.19,3.23a3.2,3.2,0,0,1,2.26,3.9l-1.08,4.17A3.18,3.18,0,0,1,82.72,116.77Z"/>
        <path class="cls-5" d="M107.51,123.33l-12.19-3.22a3.21,3.21,0,0,1-2.26-3.9L94.14,112A3.18,3.18,0,0,1,98,109.76L110.21,113a3.2,3.2,0,0,1,2.26,3.9L111.39,121A3.18,3.18,0,0,1,107.51,123.33Z"/>
      </g>
      <g>
        <path class="cls-5" d="M28.54,121.25,16.34,118a3.21,3.21,0,0,1-2.26-3.9L15.17,110A3.18,3.18,0,0,1,19,107.68l12.19,3.22a3.21,3.21,0,0,1,2.26,3.9L32.41,119A3.18,3.18,0,0,1,28.54,121.25Z"/>
        <path class="cls-5" d="M53.34,127.81l-12.19-3.22a3.21,3.21,0,0,1-2.26-3.9L40,116.52a3.18,3.18,0,0,1,3.87-2.28L56,117.46a3.21,3.21,0,0,1,2.26,3.9l-1.08,4.16A3.18,3.18,0,0,1,53.34,127.81Z"/>
        <path class="cls-5" d="M78.13,134.36l-12.19-3.22a3.21,3.21,0,0,1-2.26-3.9l1.09-4.16a3.18,3.18,0,0,1,3.87-2.28L80.83,124a3.21,3.21,0,0,1,2.26,3.9L82,132.08A3.18,3.18,0,0,1,78.13,134.36Z"/>
        <path class="cls-5" d="M102.93,140.92l-12.19-3.22a3.2,3.2,0,0,1-2.26-3.9l1.08-4.16a3.18,3.18,0,0,1,3.87-2.28l12.19,3.23a3.2,3.2,0,0,1,2.26,3.9l-1.08,4.16A3.18,3.18,0,0,1,102.93,140.92Z"/>
      </g>
      <g>
        <path class="cls-5" d="M24,138.84l-12.19-3.23a3.2,3.2,0,0,1-2.26-3.9l1.08-4.16a3.18,3.18,0,0,1,3.87-2.28l12.19,3.22a3.21,3.21,0,0,1,2.26,3.9l-1.08,4.16A3.18,3.18,0,0,1,24,138.84Z"/>
        <path class="cls-5" d="M48.75,145.39l-12.2-3.22a3.21,3.21,0,0,1-2.26-3.9l1.08-4.16a3.18,3.18,0,0,1,3.87-2.28l12.19,3.22a3.21,3.21,0,0,1,2.26,3.9l-1.08,4.16A3.17,3.17,0,0,1,48.75,145.39Z"/>
        <path class="cls-5" d="M73.55,151.95l-12.2-3.22a3.2,3.2,0,0,1-2.26-3.9l1.08-4.16A3.18,3.18,0,0,1,64,138.38l12.19,3.22a3.2,3.2,0,0,1,2.26,3.9l-1.08,4.16A3.18,3.18,0,0,1,73.55,151.95Z"/>
        <path class="cls-5" d="M98.35,158.51l-12.19-3.23a3.21,3.21,0,0,1-2.26-3.9L85,147.22a3.18,3.18,0,0,1,3.87-2.28L101,148.16a3.21,3.21,0,0,1,2.26,3.9l-1.08,4.16A3.18,3.18,0,0,1,98.35,158.51Z"/>
      </g>
    </g>
    <g>
      <path class="cls-7" d="M120.14,68.11l-83.29-22a3.65,3.65,0,0,1-2.58-4.44L40.49,17.8a3.62,3.62,0,0,1,4.41-2.59l83.29,22a3.65,3.65,0,0,1,2.57,4.44l-6.22,23.85A3.61,3.61,0,0,1,120.14,68.11Z"/>
      <path class="cls-2" d="M119.9,68.94l-83.24-22a4.53,4.53,0,0,1-3.2-5.52l6.2-23.8a4.49,4.49,0,0,1,5.48-3.22l83.24,22a4.53,4.53,0,0,1,3.2,5.52l-6.2,23.8A4.49,4.49,0,0,1,119.9,68.94ZM44.71,16.05a2.78,2.78,0,0,0-3.39,2l-6.2,23.8a2.8,2.8,0,0,0,2,3.42l83.24,22a2.78,2.78,0,0,0,3.39-2l6.2-23.8a2.8,2.8,0,0,0-2-3.41Z"/>
    </g>
  </g>
</svg>
