<svg id="Layer_1" data-name="Layer 1" xmlns="http://www.w3.org/2000/svg" viewBox="0 0 153.35 147.84">
  <defs>
    <style>
      .cls-1 {
        fill: #efeded;
      }

      .cls-2 {
        fill: #fff;
      }

      .cls-3 {
        fill: #b6b8bf;
      }

      .cls-4 {
        fill: #20110c;
      }

      .cls-5 {
        fill: #3a1f12;
      }
    </style>
  </defs>
  <title>coffee</title>
  <g>
    <ellipse class="cls-1" cx="73.39" cy="73.92" rx="73.39" ry="73.92"/>
    <g id="coffee">
      <path class="cls-2" d="M152.71,104.25a8.55,8.55,0,0,1-4.58,4.62,8.41,8.41,0,0,1-6.49,0l-23.49-9.76,6.45-15.78,23.5,9.76a8.53,8.53,0,0,1,4.61,4.61A8.63,8.63,0,0,1,152.71,104.25Z"/>
      <path class="cls-3" d="M124.6,83.35l-6.45,15.78,8.75,3.64A60.73,60.73,0,0,0,133.36,87Z"/>
      <path class="cls-2" d="M127.73,78.69a53,53,0,1,1-46-59.58A53,53,0,0,1,127.73,78.69Z"/>
      <path class="cls-4" d="M119.32,77.63a44.5,44.5,0,1,1-38.63-50A44.55,44.55,0,0,1,119.32,77.63Z"/>
      <path class="cls-5" d="M42.06,80.79a44.39,44.39,0,0,1,73-28.52A44.41,44.41,0,0,0,31,66.49a44.94,44.94,0,0,0,15.27,39.65A44.86,44.86,0,0,1,42.06,80.79Z"/>
    </g>
  </g>
</svg>
