<svg xmlns="http://www.w3.org/2000/svg" viewBox="0 0 251.16 113.87">
  <defs>
    <style>
      .cls-1 {
        isolation: isolate;
      }

      .cls-2 {
        fill: #bdbdc0;
        mix-blend-mode: multiply;
      }

      .cls-3 {
        fill: #4c73ab;
      }

      .cls-4 {
        fill: #2d2f3a;
      }

      .cls-5 {
        fill: #424755;
      }

      .cls-6 {
        fill: #fff;
      }

      .cls-7 {
        fill: #fafafa;
      }
    </style>
  </defs>
  <title>computer</title>
  <g class="cls-1">
    <g id="Layer_1" data-name="Layer 1">
      <g>
        <path class="cls-2" d="M106.68,96c3.41,9.16,25.82,19.23,46.6,13.39S185.43,84.05,182,74.9s-23-11.84-43.88-6S103.27,86.89,106.68,96Z"/>
        <path class="cls-3" d="M106.78,95.51c3.41,9.16,25.61,18.67,46.39,12.83s32.35-24.82,28.94-34-23-11.85-43.88-6S103.37,86.36,106.78,95.51Z"/>
        <path class="cls-4" d="M106.9,94.84c3.41,9.15,25.82,19.23,46.6,13.39s32.14-25.38,28.73-34.54-23-11.85-43.88-6S103.49,85.69,106.9,94.84Z"/>
        <path class="cls-4" d="M1.77,75.78C2.21,77,4,77.52,5.86,77L248.24,9c1.82-.51,2.94-1.89,2.49-3.08l-1.67-4.49C248.61.23,246.78-.32,245,.19L2.59,68.21C.77,68.72-.35,70.1.1,71.29Z"/>
        <path class="cls-2" d="M237.33,61.64A4.18,4.18,0,0,1,234.5,64L57.56,113.69a5.37,5.37,0,0,1-4-.47l-5.43-3.85,191-53.6Z"/>
        <path class="cls-5" d="M3.6,74.87,248.53,6.13c1.84-.52,3,.49,2.53,2.22L239.62,54.78l0,.07h0l-1.79,5.88a4.22,4.22,0,0,1-2.86,2.4l-178.29,50a5.42,5.42,0,0,1-4-.46l-5.46-3.84h0l-.07,0L3.24,77.9C1.61,76.75,1.76,75.38,3.6,74.87Z"/>
        <path class="cls-6" d="M247.71,9.55,234.55,59.12,54.27,109.62,8.2,76.93C8,76.76,247.71,9.55,247.71,9.55Z"/>
        <polygon class="cls-6" points="248.35 9.3 235.73 59.66 53.8 109.85 8.01 76.81 248.35 9.3"/>
        <polygon class="cls-7" points="248.35 9.3 142.94 84.78 235.73 59.66 248.35 9.3"/>
      </g>
    </g>
  </g>
</svg>
