<svg id="Layer_1" data-name="Layer 1" xmlns="http://www.w3.org/2000/svg" viewBox="0 0 151.88 53.94">
  <defs>
    <style>
      .cls-1 {
        fill: #231f20;
      }
    </style>
  </defs>
  <title>eyes</title>
  <g>
    <path class="cls-1" d="M141.82,26.89a10.07,10.07,0,1,1,0-20.13,9.91,9.91,0,0,1,1.06.06,26.92,26.92,0,1,0,8.26,13.8A10.06,10.06,0,0,1,141.82,26.89Z"/>
    <path class="cls-1" d="M43.72,27a10.07,10.07,0,1,1,0-20.13A10,10,0,0,1,44.79,7,26.88,26.88,0,1,0,53,20.77,10.07,10.07,0,0,1,43.72,27Z"/>
  </g>
</svg>
