<svg id="Layer_1" data-name="Layer 1" xmlns="http://www.w3.org/2000/svg" viewBox="0 0 213.72 88.24">
  <defs>
    <style>
      .cls-1, .cls-2 {
        fill: #434856;
      }

      .cls-1 {
        opacity: 0.4;
      }
    </style>
  </defs>
  <title>glasses</title>
  <g>
    <circle class="cls-1" cx="56.2" cy="44.77" r="38.39"/>
    <circle class="cls-1" cx="158.65" cy="43.88" r="38.4"/>
    <path class="cls-2" d="M208.17,32h-8.09a43.83,43.83,0,0,0-84.82,1.64c-1,.32-1.49.51-1.49.51l-6.31.32h-.1v0h-.49v0h-.1l-6.31-.3L99,33.63a43.84,43.84,0,0,0-84.6-1.58,5,5,0,0,0-.79-.09h-8C2.48,32,0,34.87,0,38.45s2.48,6.49,5.54,6.49H12.6a43.84,43.84,0,0,0,87.61,1.83c1.87-1.55,5.17-2,6.57-2h.69c1.42.08,4.77.49,6.63,2.07l0,.06a43.83,43.83,0,0,0,87.56-1.91h6.47c3.06,0,5.54-2.91,5.54-6.49S211.23,32,208.17,32ZM56.45,78.55A34.19,34.19,0,1,1,90.64,44.36,34.18,34.18,0,0,1,56.45,78.55Zm101.43-.48a34.19,34.19,0,1,1,34.19-34.19A34.19,34.19,0,0,1,157.88,78.07Z"/>
  </g>
</svg>
