<svg id="Layer_1" data-name="Layer 1" xmlns="http://www.w3.org/2000/svg" viewBox="0 0 245.08 286.25">
  <defs>
    <style>
      .cls-1 {
        fill: #bbbdbf;
      }

      .cls-2 {
        fill: #f4f4f4;
      }

      .cls-3 {
        fill: #3b3d3f;
      }

      .cls-4 {
        fill: #f2f2f2;
        opacity: 0.17;
      }

      .cls-5 {
        fill: #fff;
      }

      .cls-6 {
        fill: #353b55;
      }
    </style>
  </defs>
  <title>ipad</title>
  <g>
    <g>
      <path class="cls-1" d="M180.81,276.46a13.72,13.72,0,0,1-17.09,9.2l-154-47A13.84,13.84,0,0,1,.59,221.43L64.26,9.8A13.7,13.7,0,0,1,81.35.59l154,47a13.84,13.84,0,0,1,9.14,17.21Z"/>
      <path class="cls-2" d="M178.84,275.85a11.63,11.63,0,0,1-14.52,7.82l-154-47A11.76,11.76,0,0,1,2.56,222L66.23,10.4A11.64,11.64,0,0,1,80.75,2.58l154,47a11.75,11.75,0,0,1,7.76,14.63Z"/>
    </g>
    <polygon class="cls-3" points="178.66 265.01 8.53 212.87 68.02 15.94 238.14 68.08 178.66 265.01"/>
    <polygon class="cls-4" points="238.14 68.08 29.66 142.93 68.02 15.94 238.14 68.08"/>
    <path class="cls-5" d="M97.93,252.4a8,8,0,1,1-5.35-10.1A8.11,8.11,0,0,1,97.93,252.4Z"/>
    <path class="cls-6" d="M167,39,143.25,31.7a.46.46,0,0,1-.3-.57l0-.12a.45.45,0,0,1,.56-.3L167.25,38a.46.46,0,0,1,.3.57l0,.12A.45.45,0,0,1,167,39Z"/>
    <path class="cls-6" d="M140.51,30.32a1.2,1.2,0,0,1-1.5.81,1.22,1.22,0,0,1-.8-1.52,1.2,1.2,0,0,1,1.5-.81A1.22,1.22,0,0,1,140.51,30.32Z"/>
  </g>
</svg>
