<svg id="Layer_1" data-name="Layer 1" xmlns="http://www.w3.org/2000/svg" viewBox="0 0 240.66 225.76">
  <defs>
    <style>
      .cls-1 {
        fill: #64676b;
      }

      .cls-1, .cls-10 {
        opacity: 0.17;
      }

      .cls-2 {
        fill: #c6c6c6;
      }

      .cls-3 {
        fill: #e8e7e8;
      }

      .cls-4 {
        fill: #f2f1f1;
      }

      .cls-5 {
        fill: #b2b2b2;
      }

      .cls-6 {
        fill: #252628;
      }

      .cls-7 {
        fill: #55565c;
      }

      .cls-8 {
        fill: #3c3d3f;
      }

      .cls-9 {
        fill: #616267;
      }

      .cls-10 {
        fill: #bfc7e2;
      }
    </style>
  </defs>
  <title>iphone</title>
  <g>
    <path class="cls-1" d="M162.66,224.61a2,2,0,0,0,2.58,1l74.29-33.2a1.94,1.94,0,0,0,1-2.57l-36.88-81.38L191.66.56,37,16.57l-15.28,19,3.7,33.41-6.34,2.64L9.94,94.19,53.45,196.88,134.73,163Z"/>
    <g>
      <g>
        <g>
          <polygon class="cls-2" points="11.79 34.98 24.04 145.62 195.88 127.84 181.73 0 27.07 16 11.79 34.98"/>
          <g>
            <polygon class="cls-3" points="80.91 75.53 86.92 129.75 30.51 135.59 24.51 81.37 80.91 75.53"/>
            <g>
              <polygon class="cls-3" points="87.59 19.11 99.7 128.43 95.29 128.89 83.18 19.56 87.59 19.11"/>
              <polygon class="cls-3" points="97.09 18.12 109.19 127.45 104.78 127.9 92.68 18.58 97.09 18.12"/>
              <polygon class="cls-3" points="106.58 17.14 118.69 126.46 114.28 126.92 102.18 17.59 106.58 17.14"/>
              <polygon class="cls-3" points="116.08 16.16 128.19 125.48 123.78 125.94 111.68 16.61 116.08 16.16"/>
              <polygon class="cls-3" points="125.58 15.17 137.69 124.5 133.28 124.95 121.17 15.63 125.58 15.17"/>
              <polygon class="cls-3" points="135.08 14.19 147.18 123.52 142.78 123.97 130.67 14.65 135.08 14.19"/>
              <polygon class="cls-3" points="144.57 13.21 156.68 122.53 152.28 122.99 140.17 13.66 144.57 13.21"/>
              <polygon class="cls-3" points="154.07 12.23 166.18 121.55 161.77 122 149.67 12.68 154.07 12.23"/>
              <polygon class="cls-3" points="163.57 11.24 175.68 120.56 171.27 121.02 159.16 11.7 163.57 11.24"/>
              <polygon class="cls-3" points="173.07 10.26 185.17 119.58 180.77 120.04 168.66 10.72 173.07 10.26"/>
            </g>
          </g>
          <polygon class="cls-4" points="11.79 34.98 27.07 16 28.98 33.2 11.79 34.98"/>
        </g>
        <g>
          <polygon class="cls-5" points="0 93.63 43.52 196.32 202.64 129.9 152.37 11.25 9.15 71.03 0 93.63"/>
          <g>
            <polygon class="cls-3" points="67.89 56.63 110.88 158.09 106.8 159.79 63.8 58.33 67.89 56.63"/>
            <polygon class="cls-3" points="76.68 52.95 119.67 154.42 115.59 156.12 72.6 54.66 76.68 52.95"/>
            <polygon class="cls-3" points="85.47 49.28 128.47 150.75 124.39 152.45 81.39 50.99 85.47 49.28"/>
            <polygon class="cls-3" points="94.27 45.61 137.26 147.08 133.19 148.78 90.19 47.31 94.27 45.61"/>
            <polygon class="cls-3" points="103.06 41.94 146.06 143.41 141.98 145.11 98.98 43.65 103.06 41.94"/>
            <polygon class="cls-3" points="111.86 38.27 154.85 139.74 150.77 141.44 107.78 39.98 111.86 38.27"/>
            <polygon class="cls-3" points="120.65 34.6 163.65 136.06 159.57 137.77 116.57 36.3 120.65 34.6"/>
            <polygon class="cls-3" points="129.45 30.93 172.44 132.39 168.36 134.1 125.37 32.63 129.45 30.93"/>
            <polygon class="cls-3" points="138.25 27.26 181.24 128.72 177.16 130.43 134.16 28.96 138.25 27.26"/>
            <polygon class="cls-3" points="147.04 23.59 190.03 125.05 185.95 126.75 142.96 25.29 147.04 23.59"/>
          </g>
          <polygon class="cls-4" points="0 93.63 9.15 71.03 15.92 86.98 0 93.63"/>
        </g>
      </g>
      <g>
        <g>
          <path class="cls-6" d="M229.59,191.83,155.3,225a2,2,0,0,1-2.58-1L89.64,84.82a3.87,3.87,0,0,1,1.93-5.13l70.74-31.62a3.92,3.92,0,0,1,5.15,2l63.09,139.22A1.94,1.94,0,0,1,229.59,191.83Z"/>
          <path class="cls-7" d="M219.09,173.22l-70.86,31.67L99,96.2a1.93,1.93,0,0,1,1-2.57l67.32-30.09a2,2,0,0,1,2.57,1Z"/>
          <path class="cls-8" d="M137,69.35,124.39,75a.49.49,0,0,1-.63-.24h0a.47.47,0,0,1,.24-.63l12.63-5.65a.48.48,0,0,1,.63.24h0A.47.47,0,0,1,137,69.35Z"/>
          <path class="cls-8" d="M121.36,75.82a1.11,1.11,0,0,1-.55,1.47,1.12,1.12,0,0,1-1.48-.57,1.11,1.11,0,0,1,.55-1.47A1.12,1.12,0,0,1,121.36,75.82Z"/>
          <path class="cls-9" d="M193.81,196a6.34,6.34,0,0,1-3.17,8.42,6.42,6.42,0,0,1-8.45-3.23,6.34,6.34,0,0,1,3.17-8.42A6.42,6.42,0,0,1,193.81,196Z"/>
        </g>
        <path class="cls-10" d="M169.84,64.53,120.78,144.3,99,96.2s-.47-1.92,1-2.57l67.32-30.09A2,2,0,0,1,169.84,64.53Z"/>
      </g>
    </g>
  </g>
</svg>
