<svg id="Layer_1" data-name="Layer 1" xmlns="http://www.w3.org/2000/svg" viewBox="0 0 426.51 205.26">
  <defs>
    <style>
      .cls-1 {
        fill: #fff;
        stroke: #657678;
        stroke-miterlimit: 10;
        stroke-width: 2px;
      }

      .cls-2 {
        fill: #657678;
      }
    </style>
  </defs>
  <title>keyboard</title>
  <g>
    <path class="cls-1" d="M407.6,4.39A5.17,5.17,0,0,0,401.75,0L4.72,46.32A5.18,5.18,0,0,0,0,51.9l16.89,147a5.16,5.16,0,0,0,5.83,4.36l397-46.29a5.19,5.19,0,0,0,4.69-5.59Z" transform="translate(1 1)"/>
    <g>
      <path class="cls-2" d="M35.72,77.08a1.29,1.29,0,0,1-1.13,1.44L15,80.8a1.29,1.29,0,0,1-1.43-1.14L11.27,59.91a1.3,1.3,0,0,1,1.13-1.45L32,56.17a1.3,1.3,0,0,1,1.43,1.15Z" transform="translate(1 1)"/>
      <path class="cls-2" d="M79.5,99.54A1.3,1.3,0,0,1,78.37,101l-19.61,2.28a1.3,1.3,0,0,1-1.43-1.16L55.05,82.36a1.29,1.29,0,0,1,1.13-1.43L75.8,78.65a1.29,1.29,0,0,1,1.44,1.13Z" transform="translate(1 1)"/>
      <path class="cls-2" d="M89,126a1.29,1.29,0,0,1-1.14,1.44l-19.62,2.29a1.29,1.29,0,0,1-1.43-1.14l-2.27-19.77a1.31,1.31,0,0,1,1.13-1.43l19.62-2.29a1.3,1.3,0,0,1,1.43,1.13Z" transform="translate(1 1)"/>
      <path class="cls-2" d="M78.92,154.76a1.3,1.3,0,0,1-1.13,1.44l-19.62,2.29a1.3,1.3,0,0,1-1.42-1.15l-2.27-19.75a1.32,1.32,0,0,1,1.13-1.46l19.62-2.29A1.3,1.3,0,0,1,76.65,135Z" transform="translate(1 1)"/>
      <path class="cls-2" d="M48.62,189.35a1.3,1.3,0,0,1-1.13,1.44l-19.62,2.29a1.29,1.29,0,0,1-1.43-1.14l-2.67-23.2a1.3,1.3,0,0,1,1.14-1.43L44.52,165A1.3,1.3,0,0,1,46,166.14Z" transform="translate(1 1)"/>
      <path class="cls-2" d="M75.55,186.21a1.29,1.29,0,0,1-1.13,1.44l-19.61,2.29a1.3,1.3,0,0,1-1.43-1.14l-2.66-23.21a1.3,1.3,0,0,1,1.14-1.43l19.61-2.29A1.31,1.31,0,0,1,72.89,163Z" transform="translate(1 1)"/>
      <path class="cls-2" d="M102.5,183.07a1.3,1.3,0,0,1-1.14,1.44l-19.62,2.29a1.28,1.28,0,0,1-1.43-1.14l-2.67-23.21A1.31,1.31,0,0,1,78.78,161l19.62-2.29a1.31,1.31,0,0,1,1.43,1.13Z" transform="translate(1 1)"/>
      <path class="cls-2" d="M332.6,156.24a1.3,1.3,0,0,1-1.14,1.44L311.84,160a1.29,1.29,0,0,1-1.42-1.14l-2.67-23.21a1.3,1.3,0,0,1,1.12-1.44l19.62-2.28a1.32,1.32,0,0,1,1.44,1.13Z" transform="translate(1 1)"/>
      <path class="cls-2" d="M359.61,153.09a1.29,1.29,0,0,1-1.13,1.44l-19.61,2.29a1.3,1.3,0,0,1-1.44-1.14l-1.18-10.32a1.31,1.31,0,0,1,1.14-1.44L357,141.64a1.3,1.3,0,0,1,1.43,1.14Z" transform="translate(1 1)"/>
      <path class="cls-2" d="M413.63,146.8a1.3,1.3,0,0,1-1.14,1.44l-19.61,2.29a1.31,1.31,0,0,1-1.44-1.14l-1.18-10.32a1.31,1.31,0,0,1,1.14-1.44L411,135.34a1.31,1.31,0,0,1,1.43,1.14Z" transform="translate(1 1)"/>
      <path class="cls-2" d="M136.47,179.1a1.29,1.29,0,0,1-1.12,1.44l-26.66,3.11a1.29,1.29,0,0,1-1.42-1.14L104.6,159.3a1.3,1.3,0,0,1,1.12-1.43l26.67-3.11a1.3,1.3,0,0,1,1.42,1.14Z" transform="translate(1 1)"/>
      <path class="cls-2" d="M305.59,159.39a1.3,1.3,0,0,1-1.14,1.44l-26.65,3.11a1.3,1.3,0,0,1-1.43-1.14l-2.67-23.2a1.32,1.32,0,0,1,1.14-1.44l26.65-3.11a1.3,1.3,0,0,1,1.43,1.13Z" transform="translate(1 1)"/>
      <path class="cls-2" d="M271.54,163.36a1.31,1.31,0,0,1-1.14,1.44L142.73,179.68a1.3,1.3,0,0,1-1.43-1.14l-2.67-23.21a1.31,1.31,0,0,1,1.14-1.43L267.43,139a1.31,1.31,0,0,1,1.44,1.14Z" transform="translate(1 1)"/>
      <path class="cls-2" d="M105.94,151.61a1.3,1.3,0,0,1-1.13,1.44l-19.62,2.29a1.3,1.3,0,0,1-1.42-1.15l-2.27-19.76A1.31,1.31,0,0,1,82.62,133l19.62-2.29a1.3,1.3,0,0,1,1.42,1.14Z" transform="translate(1 1)"/>
      <path class="cls-2" d="M132.95,148.46a1.3,1.3,0,0,1-1.12,1.44l-19.62,2.29a1.3,1.3,0,0,1-1.43-1.15l-2.27-19.76a1.31,1.31,0,0,1,1.13-1.44l19.62-2.28a1.3,1.3,0,0,1,1.42,1.15Z" transform="translate(1 1)"/>
      <path class="cls-2" d="M160,145.31a1.3,1.3,0,0,1-1.14,1.44L139.22,149a1.32,1.32,0,0,1-1.44-1.15l-2.27-19.75a1.32,1.32,0,0,1,1.13-1.46l19.62-2.29a1.3,1.3,0,0,1,1.44,1.15Z" transform="translate(1 1)"/>
      <path class="cls-2" d="M187,142.16a1.3,1.3,0,0,1-1.12,1.44l-19.62,2.29a1.31,1.31,0,0,1-1.43-1.15L162.53,125a1.31,1.31,0,0,1,1.13-1.44l19.62-2.28a1.31,1.31,0,0,1,1.42,1.16Z" transform="translate(1 1)"/>
      <path class="cls-2" d="M214,139a1.31,1.31,0,0,1-1.13,1.45l-19.61,2.29a1.3,1.3,0,0,1-1.43-1.15l-2.27-19.76a1.3,1.3,0,0,1,1.12-1.44l19.62-2.29a1.3,1.3,0,0,1,1.42,1.14Z" transform="translate(1 1)"/>
      <path class="cls-2" d="M241,135.86a1.3,1.3,0,0,1-1.13,1.44l-19.62,2.3a1.31,1.31,0,0,1-1.44-1.14l-2.27-19.76a1.3,1.3,0,0,1,1.14-1.45L237.3,115a1.3,1.3,0,0,1,1.43,1.15Z" transform="translate(1 1)"/>
      <path class="cls-2" d="M268,132.71a1.32,1.32,0,0,1-1.15,1.45l-19.61,2.29a1.3,1.3,0,0,1-1.42-1.15l-2.27-19.76a1.3,1.3,0,0,1,1.13-1.44l19.61-2.29a1.31,1.31,0,0,1,1.44,1.15Z" transform="translate(1 1)"/>
      <path class="cls-2" d="M295,129.57a1.31,1.31,0,0,1-1.14,1.44l-19.61,2.29a1.32,1.32,0,0,1-1.44-1.14l-2.27-19.76a1.32,1.32,0,0,1,1.14-1.44l19.61-2.28a1.3,1.3,0,0,1,1.43,1.14Z" transform="translate(1 1)"/>
      <path class="cls-2" d="M322,126.42a1.29,1.29,0,0,1-1.12,1.44l-19.62,2.29a1.3,1.3,0,0,1-1.43-1.14l-2.27-19.76a1.31,1.31,0,0,1,1.13-1.44l19.62-2.29a1.29,1.29,0,0,1,1.43,1.16Z" transform="translate(1 1)"/>
      <path class="cls-2" d="M349,123.27a1.3,1.3,0,0,1-1.13,1.44L328.3,127a1.31,1.31,0,0,1-1.43-1.15l-2.27-19.76a1.31,1.31,0,0,1,1.14-1.44l19.61-2.28a1.3,1.3,0,0,1,1.43,1.14Z" transform="translate(1 1)"/>
      <path class="cls-2" d="M409.89,116.17a1.31,1.31,0,0,1-1.13,1.44l-53.45,6.23a1.29,1.29,0,0,1-1.43-1.14l-2.27-19.76a1.31,1.31,0,0,1,1.13-1.45l53.45-6.23a1.3,1.3,0,0,1,1.43,1.15Z" transform="translate(1 1)"/>
      <path class="cls-2" d="M116,122.85a1.28,1.28,0,0,1-1.12,1.44l-19.63,2.28a1.27,1.27,0,0,1-1.42-1.13l-2.27-19.76a1.3,1.3,0,0,1,1.12-1.43L112.34,102a1.28,1.28,0,0,1,1.42,1.14Z" transform="translate(1 1)"/>
      <path class="cls-2" d="M143,119.7a1.29,1.29,0,0,1-1.13,1.44l-19.62,2.29a1.29,1.29,0,0,1-1.42-1.15l-2.27-19.76a1.29,1.29,0,0,1,1.12-1.43l19.62-2.29a1.3,1.3,0,0,1,1.43,1.14Z" transform="translate(1 1)"/>
      <path class="cls-2" d="M170.05,116.56a1.28,1.28,0,0,1-1.12,1.44l-19.63,2.29a1.29,1.29,0,0,1-1.42-1.15l-2.27-19.75A1.3,1.3,0,0,1,146.74,98l19.62-2.29a1.29,1.29,0,0,1,1.42,1.14Z" transform="translate(1 1)"/>
      <path class="cls-2" d="M197.07,113.41a1.29,1.29,0,0,1-1.12,1.44l-19.63,2.28A1.28,1.28,0,0,1,174.9,116l-2.27-19.76a1.3,1.3,0,0,1,1.12-1.43l19.63-2.29a1.31,1.31,0,0,1,1.42,1.13Z" transform="translate(1 1)"/>
      <path class="cls-2" d="M224.08,110.26A1.29,1.29,0,0,1,223,111.7L203.33,114a1.3,1.3,0,0,1-1.43-1.14l-2.27-19.76a1.3,1.3,0,0,1,1.13-1.43l19.62-2.29a1.3,1.3,0,0,1,1.43,1.14Z" transform="translate(1 1)"/>
      <path class="cls-2" d="M251.09,107.11a1.29,1.29,0,0,1-1.13,1.44l-19.61,2.28a1.29,1.29,0,0,1-1.43-1.14l-2.27-19.75a1.31,1.31,0,0,1,1.14-1.44l19.61-2.28a1.29,1.29,0,0,1,1.42,1.13Z" transform="translate(1 1)"/>
      <path class="cls-2" d="M278.1,104A1.29,1.29,0,0,1,277,105.4l-19.62,2.28a1.28,1.28,0,0,1-1.43-1.14l-2.27-19.76a1.3,1.3,0,0,1,1.13-1.43l19.62-2.29a1.29,1.29,0,0,1,1.42,1.13Z" transform="translate(1 1)"/>
      <path class="cls-2" d="M305.12,100.81a1.3,1.3,0,0,1-1.13,1.44l-19.62,2.29a1.29,1.29,0,0,1-1.43-1.14l-2.27-19.76a1.31,1.31,0,0,1,1.14-1.43l19.62-2.29a1.3,1.3,0,0,1,1.42,1.14Z" transform="translate(1 1)"/>
      <path class="cls-2" d="M332.13,97.66A1.29,1.29,0,0,1,331,99.1l-19.62,2.28a1.28,1.28,0,0,1-1.43-1.14l-2.27-19.76a1.3,1.3,0,0,1,1.13-1.43l19.63-2.29a1.3,1.3,0,0,1,1.42,1.14Z" transform="translate(1 1)"/>
      <path class="cls-2" d="M359.14,94.52A1.29,1.29,0,0,1,358,96l-19.62,2.28A1.28,1.28,0,0,1,337,97.1l-2.27-19.76a1.3,1.3,0,0,1,1.14-1.43l19.62-2.29a1.3,1.3,0,0,1,1.42,1.14Z" transform="translate(1 1)"/>
      <path class="cls-2" d="M386.15,91.37A1.28,1.28,0,0,1,385,92.8L365.4,95.09A1.28,1.28,0,0,1,364,94l-2.27-19.76a1.3,1.3,0,0,1,1.13-1.43l19.63-2.29a1.29,1.29,0,0,1,1.42,1.13Z" transform="translate(1 1)"/>
      <path class="cls-2" d="M106.52,96.39a1.31,1.31,0,0,1-1.14,1.45l-19.62,2.29A1.3,1.3,0,0,1,84.33,99L82.06,79.21a1.3,1.3,0,0,1,1.14-1.43l19.62-2.28a1.3,1.3,0,0,1,1.43,1.14Z" transform="translate(1 1)"/>
      <path class="cls-2" d="M133.53,93.24a1.3,1.3,0,0,1-1.13,1.45L112.77,97a1.29,1.29,0,0,1-1.43-1.15l-2.27-19.77a1.29,1.29,0,0,1,1.13-1.43l19.62-2.29a1.29,1.29,0,0,1,1.43,1.13Z" transform="translate(1 1)"/>
      <path class="cls-2" d="M160.54,90.09a1.3,1.3,0,0,1-1.14,1.45l-19.61,2.29a1.3,1.3,0,0,1-1.42-1.15l-2.27-19.77a1.29,1.29,0,0,1,1.12-1.43l19.62-2.29a1.3,1.3,0,0,1,1.43,1.13Z" transform="translate(1 1)"/>
      <path class="cls-2" d="M187.54,86.94a1.3,1.3,0,0,1-1.12,1.45L166.8,90.68a1.29,1.29,0,0,1-1.43-1.15L163.1,69.77a1.29,1.29,0,0,1,1.13-1.43l19.62-2.29a1.28,1.28,0,0,1,1.42,1.13Z" transform="translate(1 1)"/>
      <path class="cls-2" d="M214.56,83.8a1.3,1.3,0,0,1-1.13,1.45l-19.61,2.29a1.3,1.3,0,0,1-1.43-1.16l-2.27-19.76a1.3,1.3,0,0,1,1.13-1.43l19.61-2.29A1.3,1.3,0,0,1,212.29,64Z" transform="translate(1 1)"/>
      <path class="cls-2" d="M241.56,80.65a1.3,1.3,0,0,1-1.12,1.45l-19.62,2.29a1.3,1.3,0,0,1-1.43-1.16l-2.27-19.76A1.3,1.3,0,0,1,218.25,62l19.62-2.29a1.29,1.29,0,0,1,1.42,1.13Z" transform="translate(1 1)"/>
      <path class="cls-2" d="M268.58,77.49a1.3,1.3,0,0,1-1.13,1.46l-19.62,2.29a1.3,1.3,0,0,1-1.42-1.16l-2.27-19.76a1.3,1.3,0,0,1,1.12-1.43l19.62-2.29a1.29,1.29,0,0,1,1.42,1.13Z" transform="translate(1 1)"/>
      <path class="cls-2" d="M295.6,74.35a1.31,1.31,0,0,1-1.14,1.45l-19.61,2.29a1.3,1.3,0,0,1-1.43-1.15l-2.27-19.76a1.3,1.3,0,0,1,1.13-1.43l19.62-2.28a1.28,1.28,0,0,1,1.43,1.13Z" transform="translate(1 1)"/>
      <path class="cls-2" d="M322.6,71.2a1.3,1.3,0,0,1-1.12,1.45l-19.62,2.28a1.29,1.29,0,0,1-1.43-1.15L298.16,54a1.3,1.3,0,0,1,1.13-1.43l19.62-2.28a1.28,1.28,0,0,1,1.41,1.13Z" transform="translate(1 1)"/>
      <path class="cls-2" d="M349.62,68.05a1.3,1.3,0,0,1-1.13,1.45l-19.62,2.29a1.3,1.3,0,0,1-1.42-1.16l-2.27-19.76a1.3,1.3,0,0,1,1.13-1.43l19.62-2.28a1.29,1.29,0,0,1,1.43,1.13Z" transform="translate(1 1)"/>
      <path class="cls-2" d="M376.63,64.9a1.29,1.29,0,0,1-1.12,1.45l-19.62,2.29a1.29,1.29,0,0,1-1.43-1.15l-2.27-19.76a1.29,1.29,0,0,1,1.13-1.42L372.94,44a1.29,1.29,0,0,1,1.42,1.13Z" transform="translate(1 1)"/>
      <path class="cls-2" d="M52.49,102.69a1.3,1.3,0,0,1-1.13,1.45L18.1,108a1.29,1.29,0,0,1-1.43-1.15L14.39,87.11a1.29,1.29,0,0,1,1.14-1.43l33.26-3.88a1.3,1.3,0,0,1,1.43,1.13Z" transform="translate(1 1)"/>
      <path class="cls-2" d="M400.52,34.55A1.3,1.3,0,0,1,399.39,36l-33.27,3.88a1.29,1.29,0,0,1-1.42-1.14L362.42,19a1.31,1.31,0,0,1,1.12-1.44l33.27-3.88a1.29,1.29,0,0,1,1.43,1.14Z" transform="translate(1 1)"/>
      <path class="cls-2" d="M62,129.16a1.28,1.28,0,0,1-1.13,1.43l-39.65,4.62a1.28,1.28,0,0,1-1.43-1.14l-2.27-19.75a1.31,1.31,0,0,1,1.14-1.44l39.65-4.63a1.3,1.3,0,0,1,1.43,1.14Z" transform="translate(1 1)"/>
      <path class="cls-2" d="M51.92,157.91a1.3,1.3,0,0,1-1.14,1.44l-26.44,3.09a1.3,1.3,0,0,1-1.43-1.15l-2.27-19.76a1.3,1.3,0,0,1,1.13-1.44L48.22,137a1.31,1.31,0,0,1,1.43,1.15Z" transform="translate(1 1)"/>
      <path class="cls-2" d="M62.73,73.93a1.3,1.3,0,0,1-1.14,1.44L42,77.65a1.29,1.29,0,0,1-1.43-1.14L38.28,56.76a1.3,1.3,0,0,1,1.13-1.45L59,53a1.3,1.3,0,0,1,1.43,1.15Z" transform="translate(1 1)"/>
      <path class="cls-2" d="M89.74,70.78a1.31,1.31,0,0,1-1.13,1.44L69,74.5a1.29,1.29,0,0,1-1.42-1.14L65.3,53.61a1.3,1.3,0,0,1,1.13-1.45L86,49.88A1.29,1.29,0,0,1,87.47,51Z" transform="translate(1 1)"/>
      <path class="cls-2" d="M116.76,67.63a1.31,1.31,0,0,1-1.14,1.44L96,71.36a1.29,1.29,0,0,1-1.43-1.15L92.31,50.46A1.29,1.29,0,0,1,93.43,49L113,46.73a1.31,1.31,0,0,1,1.44,1.15Z" transform="translate(1 1)"/>
      <path class="cls-2" d="M143.77,64.48a1.31,1.31,0,0,1-1.13,1.44L123,68.21a1.3,1.3,0,0,1-1.43-1.14l-2.27-19.76a1.3,1.3,0,0,1,1.13-1.44l19.62-2.29a1.3,1.3,0,0,1,1.43,1.15Z" transform="translate(1 1)"/>
      <path class="cls-2" d="M170.77,61.34a1.29,1.29,0,0,1-1.13,1.44L150,65.06a1.29,1.29,0,0,1-1.43-1.14l-2.27-19.75a1.31,1.31,0,0,1,1.14-1.45l19.62-2.28a1.29,1.29,0,0,1,1.42,1.15Z" transform="translate(1 1)"/>
      <path class="cls-2" d="M197.78,58.18a1.3,1.3,0,0,1-1.13,1.44L177,61.91a1.29,1.29,0,0,1-1.43-1.14L173.34,41a1.3,1.3,0,0,1,1.13-1.45l19.61-2.28a1.29,1.29,0,0,1,1.43,1.15Z" transform="translate(1 1)"/>
      <path class="cls-2" d="M224.79,55a1.29,1.29,0,0,1-1.12,1.44L204,58.76a1.3,1.3,0,0,1-1.43-1.14l-2.27-19.76a1.3,1.3,0,0,1,1.14-1.44l19.61-2.29a1.29,1.29,0,0,1,1.42,1.15Z" transform="translate(1 1)"/>
      <path class="cls-2" d="M251.81,51.88a1.29,1.29,0,0,1-1.14,1.44l-19.62,2.29a1.29,1.29,0,0,1-1.43-1.14l-2.27-19.75a1.3,1.3,0,0,1,1.13-1.45L248.1,31a1.3,1.3,0,0,1,1.44,1.15Z" transform="translate(1 1)"/>
      <path class="cls-2" d="M278.81,48.74a1.29,1.29,0,0,1-1.12,1.44l-19.61,2.29a1.3,1.3,0,0,1-1.44-1.15l-2.27-19.76a1.29,1.29,0,0,1,1.13-1.44l19.62-2.29A1.28,1.28,0,0,1,276.54,29Z" transform="translate(1 1)"/>
      <path class="cls-2" d="M305.83,45.59A1.31,1.31,0,0,1,304.71,47l-19.63,2.28a1.29,1.29,0,0,1-1.42-1.14l-2.27-19.76A1.3,1.3,0,0,1,282.51,27l19.62-2.29a1.3,1.3,0,0,1,1.43,1.15Z" transform="translate(1 1)"/>
      <path class="cls-2" d="M332.84,42.44a1.3,1.3,0,0,1-1.13,1.44L312.1,46.17A1.3,1.3,0,0,1,310.66,45l-2.27-19.75a1.31,1.31,0,0,1,1.13-1.45l19.62-2.28a1.3,1.3,0,0,1,1.43,1.14Z" transform="translate(1 1)"/>
      <path class="cls-2" d="M359.85,39.29a1.29,1.29,0,0,1-1.13,1.44L339.1,43a1.29,1.29,0,0,1-1.42-1.14l-2.27-19.76a1.3,1.3,0,0,1,1.12-1.44l19.64-2.29a1.29,1.29,0,0,1,1.42,1.14Z" transform="translate(1 1)"/>
      <g>
        <path class="cls-2" d="M363.19,141.66l1.25,10.87a1.28,1.28,0,0,0,.47.86,1.26,1.26,0,0,0,1,.27l19.62-2.28a1.25,1.25,0,0,0,.86-.49,1.23,1.23,0,0,0,.27-1l-1.25-10.88Z" transform="translate(1 1)"/>
        <path class="cls-2" d="M385.2,137.62,384,126.74a1.27,1.27,0,0,0-.48-.86,1.28,1.28,0,0,0-.94-.28l-19.63,2.29a1.32,1.32,0,0,0-.87.49,1.29,1.29,0,0,0-.26.94L363,140.2Z" transform="translate(1 1)"/>
      </g>
      <path class="cls-2" d="M380.32,43.15a1.27,1.27,0,0,0-1.12,1.43l2.27,19.77a1.29,1.29,0,0,0,.47.88,1.31,1.31,0,0,0,.94.28l5.12-.6,3,25.91a1.34,1.34,0,0,0,.48.87,1.28,1.28,0,0,0,1,.27l13.21-1.54a1.28,1.28,0,0,0,.87-.48,1.29,1.29,0,0,0,.27-1l-5.4-47a1.28,1.28,0,0,0-1.43-1.13Z" transform="translate(1 1)"/>
    </g>
  </g>
</svg>
