<svg id="Layer_1" data-name="Layer 1" xmlns="http://www.w3.org/2000/svg" xmlns:xlink="http://www.w3.org/1999/xlink" viewBox="0 0 232.23 191.09">
  <defs>
    <style>
      .cls-1 {
        fill: none;
      }

      .cls-2 {
        fill: #282c33;
      }

      .cls-3 {
        fill: #424755;
      }

      .cls-4 {
        fill: #e8d7c7;
      }

      .cls-5 {
        fill: url(#linear-gradient);
      }

      .cls-6 {
        fill: #fff;
      }

      .cls-7 {
        fill: #3d283a;
      }

      .cls-8 {
        fill: #dbd2a7;
      }

      .cls-9 {
        fill: #b5a18f;
      }
    </style>
    <linearGradient id="linear-gradient" x1="61.66" y1="53.18" x2="81.67" y2="53.18" gradientUnits="userSpaceOnUse">
      <stop offset="0.17" stop-color="#d8c6b8"/>
      <stop offset="0.55" stop-color="#e0cebf"/>
      <stop offset="0.8" stop-color="#e8d7c7"/>
    </linearGradient>
  </defs>
  <title>man</title>
  <path class="cls-1" d="M92.17,143.54a206.68,206.68,0,0,1,63.21.47l2.48-19.25H89.12Z" transform="translate(-5.72 0)"/>
  <path class="cls-2" d="M205.69,164.48l3.52-39.72H157.87L155.38,144a206.68,206.68,0,0,0-63.21-.47l-3.05-18.78H40.2l4.54,27.94a22.12,22.12,0,0,0,1.86,6c-10.23,6.45-16.22,14.27-16.22,22.7a19.41,19.41,0,0,0,2.75,9.73H211.51a19.4,19.4,0,0,0,2.74-9.73C214.25,175.32,211.18,169.61,205.69,164.48Z" transform="translate(-5.72 0)"/>
  <path class="cls-3" d="M211.39,184.23s-31.07-14.62-89.14-14.34c-57.78.27-88.35,14.34-88.35,14.34v6.86H211.39Z" transform="translate(-5.72 0)"/>
  <g>
    <g>
      <g>
        <path class="cls-4" d="M58.49,14.87c.38-2.18,2.9-3.57,5.64-3.1h0c2.74.47,4.65,2.62,4.28,4.8L63.29,46.37c-.38,2.18-2.9,3.57-5.64,3.1h0c-2.74-.47-4.65-2.62-4.28-4.8Z" transform="translate(-5.72 0)"/>
        <path class="cls-4" d="M46.16,17.2c.38-2.18,3.11-3.53,6.12-3h0c3,.52,5.13,2.7,4.76,4.89L51.91,48.87c-.37,2.18-3.11,3.53-6.12,3h0c-3-.52-5.13-2.7-4.76-4.88Z" transform="translate(-5.72 0)"/>
        <g>
          <path class="cls-4" d="M81.21,33.79a4.24,4.24,0,0,1,6-.39h0a4.24,4.24,0,0,1,1,5.9L69.42,63a4.24,4.24,0,0,1-6,.39h0a4.24,4.24,0,0,1-1-5.9Z" transform="translate(-5.72 0)"/>
          <path class="cls-5" d="M62.45,57.5,74.77,41.94l6.9,5.59L69.42,63a4.46,4.46,0,0,1-7-5.51Z" transform="translate(-5.72 0)"/>
        </g>
        <path class="cls-4" d="M33.8,50.79l4-30.63a3.82,3.82,0,0,1,4.23-3.34,3.82,3.82,0,0,1,2.87,4.56l-1.42,8.23,22.93,3.49v0L71.58,3.27a4.23,4.23,0,0,1,5-3.2,4.22,4.22,0,0,1,3.67,4.7L72.15,56.41c-1.44,9.8-11.56,16.43-22.6,14.81S32.36,60.59,33.8,50.79Z" transform="translate(-5.72 0)"/>
      </g>
      <rect class="cls-4" x="25.22" y="70.68" width="37.02" height="24.27" transform="translate(-53.45 102.98) rotate(-74.6)"/>
    </g>
    <path class="cls-6" d="M60.94,75.24c-.53,2.37-1.22,5.27-1.22,5.27l-29.32-6.8,1.15-5c.26-1.12.55-2.31,1.8-2s25.48,5.88,26.44,6.13S61.39,73.2,60.94,75.24Z" transform="translate(-5.72 0)"/>
    <circle class="cls-7" cx="56.55" cy="76.13" r="1.89" transform="translate(-43.94 72.5) rotate(-51.2)"/>
    <polygon class="cls-3" points="39.57 191.09 41.77 144.4 55.01 79.74 22.66 73.11 9.19 138.9 0 191.09 39.57 191.09"/>
    <polygon class="cls-3" points="39.55 191.09 41.73 144.74 41.69 144.35 32.29 191.09 39.55 191.09"/>
  </g>
  <g>
    <path class="cls-8" d="M225.49,72.36l0-16.79,0-6.68a2.75,2.75,0,1,0-5.47.2l.23,6.34-17.62.31a.22.22,0,0,1,0,0l-7,.16L196,72.73c.09,7.52,7,13.54,15.52,13.43S225.58,79.89,225.49,72.36Z" transform="translate(-5.72 0)"/>
    <path class="cls-4" d="M212.16,21c-.9-3.19-3.8-5.16-6.48-4.4h0c-2.68.76-4.11,4-3.21,7.14l8.63,30.5c.9,3.18,3.8,5.15,6.48,4.4h0c2.68-.76,4.12-4,3.21-7.14Z" transform="translate(-5.72 0)"/>
    <path class="cls-4" d="M202.43,8.76a4.32,4.32,0,0,0-6.08,0h0a4.32,4.32,0,0,0-.81,6l8.57,9.83a4.32,4.32,0,0,0,6.08,0h0a4.32,4.32,0,0,0,.81-6Z" transform="translate(-5.72 0)"/>
    <path class="cls-4" d="M220.85,25.89a3.55,3.55,0,0,0-4.4-2.42h0A3.55,3.55,0,0,0,214,27.87l5.1,17.56a3.56,3.56,0,0,0,4.41,2.42h0a3.55,3.55,0,0,0,2.42-4.41Z" transform="translate(-5.72 0)"/>
    <path class="cls-4" d="M228.58,28.13c-.43-1.46-2.3-2.2-4.18-1.65h0c-1.89.55-3.07,2.17-2.65,3.63L225.7,43.7c.42,1.46-6.2,4.81-4.32,4.26l1.85-.29c1.89-.55,6.32-1.85,5.9-3.31Z" transform="translate(-5.72 0)"/>
    <path class="cls-4" d="M194.68,33.9a4.73,4.73,0,0,0-5-4.49h0c-2.69,0-4.95,4.45-4.9,7l.37,12.54a4.48,4.48,0,0,0,4.61,4.55l.28-2.94a4.73,4.73,0,0,0,4.8-4.65Z" transform="translate(-5.72 0)"/>
    <path class="cls-4" d="M207.2,33.26S198.47,53.09,194,39.19s-8.08,5.62-8.08,5.62l-.72,5.25s9.48,22.67,10.66,25.39a3.74,3.74,0,0,0,3.95,2.27L221.93,76s2.73.29,3.4-3.26,3.77-27.92,3.77-27.92L220,35.35Z" transform="translate(-5.72 0)"/>
    <rect class="cls-4" x="199.66" y="70.39" width="25.53" height="30.35" transform="translate(-14.49 26.22) rotate(-6.92)"/>
    <path class="cls-6" d="M228.24,87c.21,2.42.44,5.39.44,5.39l-30,2.42-.41-5.09c-.09-1.15-.17-2.37,1.12-2.45s26.06-2.13,27.05-2.19S228.06,84.93,228.24,87Z" transform="translate(-5.72 0)"/>
    <circle class="cls-7" cx="203.36" cy="90.73" r="1.89" transform="translate(39.64 247.66) rotate(-68.85)"/>
    <polygon class="cls-3" points="194.19 191.09 231.93 191.09 232.23 164.24 224.2 91.41 191.27 93.92 198.89 165.41 194.19 191.09"/>
    <g>
      <g>
        <path class="cls-3" d="M224.15,29.08l-30-14.56-6-.28-1.37,2.83,3.92,4.52,30,14.56a4.19,4.19,0,0,0,5.69-1.61A4.19,4.19,0,0,0,224.15,29.08Z" transform="translate(-5.72 0)"/>
        <polygon class="cls-3" points="181.1 17.07 182.47 14.24 178.25 13.93 181.1 17.07"/>
      </g>
      <circle class="cls-9" cx="222.99" cy="32.91" r="2.88" transform="translate(-8.07 38.64) rotate(-9.85)"/>
    </g>
    <path class="cls-4" d="M196.26,25.27a4.57,4.57,0,0,0-3.57-5.39h0a4.57,4.57,0,0,0-5.39,3.57l-2.39,11.75a4.57,4.57,0,0,0,3.57,5.39h0A4.57,4.57,0,0,0,193.87,37Z" transform="translate(-5.72 0)"/>
  </g>
</svg>
