<svg id="Layer_1" data-name="Layer 1" xmlns="http://www.w3.org/2000/svg" viewBox="0 0 74.64 116.96">
  <defs>
    <style>
      .cls-1 {
        fill: #64676b;
        opacity: 0.17;
      }

      .cls-2 {
        fill: #fff;
      }

      .cls-3 {
        fill: #8b9e9e;
      }
    </style>
  </defs>
  <title>mouse</title>
  <g>
    <path class="cls-1" d="M56.31,18.25l-5.9-1.14L44.49,16A22.61,22.61,0,0,0,18,34L7.83,87.64a22.74,22.74,0,0,0,17.92,26.62l5.92,1.15,5.9,1.14A22.6,22.6,0,0,0,64,98.5L74.23,44.89A22.75,22.75,0,0,0,56.31,18.25Z"/>
    <g>
      <path class="cls-2" d="M37.07.41,43,1.56,24.25,99.86l-5.92-1.15A22.74,22.74,0,0,1,.41,72.09L10.63,18.47A22.61,22.61,0,0,1,37.07.41Z"/>
      <g>
        <path class="cls-2" d="M48.89,2.7A22.75,22.75,0,0,1,66.81,29.34L56.6,83a22.6,22.6,0,0,1-26.44,18l-5.9-1.14L43,1.56Z"/>
        <path class="cls-3" d="M37.55,3.73,43,4.79l-17.54,92L20,95.73A21.11,21.11,0,0,1,3.58,70.88L13.14,20.7A21,21,0,0,1,37.55,3.73Z"/>
      </g>
    </g>
  </g>
</svg>
