<svg id="Layer_1" data-name="Layer 1" xmlns="http://www.w3.org/2000/svg" viewBox="0 0 174.8 124.86">
  <defs>
    <style>
      .cls-1 {
        fill: #424755;
      }

      .cls-2 {
        fill: #f6f6f6;
      }

      .cls-3 {
        fill: #fff;
      }

      .cls-4 {
        fill: #bf71ac;
      }
    </style>
  </defs>
  <title>notepad</title>
  <g>
    <g>
      <g>
        <rect class="cls-1" width="174.8" height="124.86"/>
        <rect class="cls-2" x="7.85" y="7.14" width="77.77" height="110.59"/>
        <rect class="cls-2" x="89.19" y="7.14" width="77.77" height="110.59"/>
      </g>
      <rect class="cls-3" x="7.85" y="7.14" width="77.77" height="2.14"/>
      <rect class="cls-3" x="7.85" y="7.85" width="2.14" height="109.87"/>
      <rect class="cls-3" x="89.19" y="7.14" width="77.77" height="2.14"/>
      <rect class="cls-3" x="164.81" y="8.56" width="2.14" height="109.16"/>
      <g>
        <polygon class="cls-4" points="111.3 5.71 111.3 9.99 111.3 19.27 111.3 23.54 117.72 19.98 124.14 23.54 124.14 19.27 124.14 9.99 124.14 5.71 111.3 5.71"/>
        <g>
          <polygon class="cls-1" points="122.72 5.71 122.72 9.99 122.72 18.47 122.72 22.75 124.14 23.54 124.14 19.27 124.14 9.99 124.14 5.71 122.72 5.71"/>
          <polygon class="cls-1" points="111.3 9.99 111.3 19.27 111.3 23.54 112.73 22.75 112.73 18.47 112.73 9.99 112.73 5.71 111.3 5.71 111.3 9.99"/>
        </g>
      </g>
      <rect class="cls-4" x="166.95" y="9.28" width="0.71" height="109.16"/>
      <rect class="cls-4" x="7.13" y="9.28" width="0.71" height="109.16"/>
    </g>
    <rect class="cls-1" x="36.7" y="35.17" width="40.15" height="3.09"/>
    <rect class="cls-1" x="18.17" y="55.24" width="58.68" height="3.09"/>
    <rect class="cls-1" x="18.17" y="76.86" width="58.68" height="3.09"/>
    <rect class="cls-1" x="18.17" y="96.93" width="58.68" height="3.09"/>
    <rect class="cls-1" x="96.93" y="35.17" width="58.68" height="3.09"/>
    <rect class="cls-1" x="96.93" y="55.24" width="58.68" height="3.09"/>
    <rect class="cls-1" x="96.93" y="76.86" width="58.68" height="3.09"/>
    <rect class="cls-1" x="96.93" y="96.93" width="58.68" height="3.09"/>
  </g>
</svg>
