<svg id="Layer_1" data-name="Layer 1" xmlns="http://www.w3.org/2000/svg" xmlns:xlink="http://www.w3.org/1999/xlink" viewBox="0 0 304.52 358.84">
  <defs>
    <style>
      .cls-1 {
        fill: #64676b;
        opacity: 0.17;
      }

      .cls-2 {
        fill: #657678;
      }

      .cls-3 {
        fill: #bcbec0;
      }

      .cls-4 {
        fill: #d1d3d4;
      }

      .cls-5 {
        fill: #f1f2f2;
      }

      .cls-6 {
        fill: #fff;
      }

      .cls-7 {
        fill: #808386;
      }

      .cls-8 {
        fill: url(#linear-gradient);
      }

      .cls-9 {
        fill: url(#linear-gradient-2);
      }

      .cls-10 {
        fill: url(#linear-gradient-3);
      }

      .cls-11 {
        fill: url(#linear-gradient-4);
      }

      .cls-12 {
        fill: url(#linear-gradient-5);
      }

      .cls-13 {
        fill: url(#linear-gradient-6);
      }

      .cls-14 {
        fill: url(#linear-gradient-7);
      }

      .cls-15 {
        fill: url(#linear-gradient-8);
      }

      .cls-16 {
        fill: url(#linear-gradient-9);
      }

      .cls-17 {
        fill: #e9e8e8;
      }

      .cls-18 {
        fill: #fcc774;
      }

      .cls-19 {
        fill: #efb065;
      }

      .cls-20 {
        fill: #e39c48;
      }

      .cls-21 {
        fill: #f0d5a9;
      }

      .cls-22 {
        fill: #d6b69d;
      }

      .cls-23 {
        fill: #c3a386;
      }

      .cls-24 {
        fill: #5e6064;
      }
    </style>
    <linearGradient id="linear-gradient" x1="6723.53" y1="1654.32" x2="6699.37" y2="1654.32" gradientTransform="matrix(-0.18, -0.98, -0.98, 0.18, 3023.39, 6326.33)" gradientUnits="userSpaceOnUse">
      <stop offset="0" stop-color="#dcddde"/>
      <stop offset="1" stop-color="#a7a9ac"/>
    </linearGradient>
    <linearGradient id="linear-gradient-2" x1="6723.48" y1="1674.88" x2="6699.33" y2="1674.88" xlink:href="#linear-gradient"/>
    <linearGradient id="linear-gradient-3" x1="6723.43" y1="1695.44" x2="6699.27" y2="1695.44" xlink:href="#linear-gradient"/>
    <linearGradient id="linear-gradient-4" x1="6723.4" y1="1715.99" x2="6699.23" y2="1715.99" xlink:href="#linear-gradient"/>
    <linearGradient id="linear-gradient-5" x1="6723.33" y1="1736.55" x2="6699.18" y2="1736.55" xlink:href="#linear-gradient"/>
    <linearGradient id="linear-gradient-6" x1="6723.28" y1="1757.11" x2="6699.13" y2="1757.11" xlink:href="#linear-gradient"/>
    <linearGradient id="linear-gradient-7" x1="6723.24" y1="1777.67" x2="6699.09" y2="1777.67" xlink:href="#linear-gradient"/>
    <linearGradient id="linear-gradient-8" x1="6723.19" y1="1798.22" x2="6699.02" y2="1798.22" xlink:href="#linear-gradient"/>
    <linearGradient id="linear-gradient-9" x1="6723.14" y1="1818.78" x2="6698.98" y2="1818.78" xlink:href="#linear-gradient"/>
  </defs>
  <title>pad</title>
  <g>
    <path class="cls-1" d="M304.4,310.85,252.24,17.37a7.73,7.73,0,0,0-9-6.27l-22.9,4.18a2.73,2.73,0,0,0-2.75-1.13,2.78,2.78,0,0,0-2.19,2L200.13,19a2.73,2.73,0,0,0-2.74-1.13,2.76,2.76,0,0,0-2.18,2l-15.29,2.79a2.73,2.73,0,0,0-2.75-1.13,2.78,2.78,0,0,0-2.19,2l-15.29,2.79a2.75,2.75,0,0,0-2.75-1.14,2.8,2.8,0,0,0-2.18,2l-15.28,2.79a2.77,2.77,0,0,0-4.94.9l-15.28,2.79a2.72,2.72,0,0,0-2.74-1.13,2.76,2.76,0,0,0-2.2,2L99,37.46a2.73,2.73,0,0,0-2.75-1.13,2.8,2.8,0,0,0-2.2,2L78.79,41.15A2.76,2.76,0,0,0,76,40a2.79,2.79,0,0,0-2.18,2L58.58,44.85a2.77,2.77,0,0,0-5,.91L30.71,49.94a7.81,7.81,0,0,0-6.24,9L76.63,352.47a7.7,7.7,0,0,0,9,6.25l212.57-38.83A7.83,7.83,0,0,0,304.4,310.85Z"/>
    <g>
      <g>
        <path class="cls-2" d="M289.45,299.87a7.83,7.83,0,0,1-6.25,9L70.63,347.74a7.7,7.7,0,0,1-9-6.25L9.52,48a7.81,7.81,0,0,1,6.24-9L228.31.12a7.73,7.73,0,0,1,9,6.27Z"/>
        <path class="cls-3" d="M83.4,331.22a11.11,11.11,0,0,1-12.87-9L24.7,64.39a11.25,11.25,0,0,1,9-13L215.83,18.12a11.1,11.1,0,0,1,12.87,9L274.52,285a11.22,11.22,0,0,1-9,13Z"/>
        <path class="cls-4" d="M83,329.16a11.11,11.11,0,0,1-12.88-9L24.34,62.32a11.23,11.23,0,0,1,9-13L215.45,16.05a11.1,11.1,0,0,1,12.88,9l45.82,257.85a11.23,11.23,0,0,1-9,13Z"/>
        <path class="cls-5" d="M24,60.25l.82,4.57a11.21,11.21,0,0,1,9-13L215.89,18.56a11.09,11.09,0,0,1,12.87,9L227.94,23a11.08,11.08,0,0,0-12.86-9L32.92,47.28A11.23,11.23,0,0,0,24,60.25Z"/>
        <path class="cls-6" d="M82.67,327.09a11.1,11.1,0,0,1-12.87-9L24,60.25a11.21,11.21,0,0,1,9-13L215.09,14A11.1,11.1,0,0,1,228,23l45.83,257.85a11.25,11.25,0,0,1-9,13Z"/>
        <g>
          <g>
            <path class="cls-7" d="M206.17,22.89a3.58,3.58,0,1,0,4.11,2.89A3.52,3.52,0,0,0,206.17,22.89Z"/>
            <path class="cls-8" d="M202.66,3.17a2.79,2.79,0,0,0-2.25,3.22L203.89,26a2.77,2.77,0,0,0,3.22,2.24h0A2.8,2.8,0,0,0,209.35,25l-3.48-19.6a2.75,2.75,0,0,0-3.21-2.23Z"/>
          </g>
          <g>
            <path class="cls-7" d="M185.94,26.58a3.58,3.58,0,1,0,4.13,2.88A3.53,3.53,0,0,0,185.94,26.58Z"/>
            <path class="cls-9" d="M182.43,6.87a2.77,2.77,0,0,0-2.23,3.23l3.48,19.6a2.74,2.74,0,0,0,3.2,2.23h0a2.77,2.77,0,0,0,2.23-3.23L185.63,9.1a2.73,2.73,0,0,0-3.2-2.23Z"/>
          </g>
          <g>
            <path class="cls-7" d="M165.71,30.28a3.58,3.58,0,1,0,4.13,2.89A3.58,3.58,0,0,0,165.71,30.28Z"/>
            <path class="cls-10" d="M162.21,10.57A2.78,2.78,0,0,0,160,13.8l3.48,19.6a2.78,2.78,0,0,0,3.23,2.23h0a2.79,2.79,0,0,0,2.23-3.22l-3.49-19.6a2.73,2.73,0,0,0-3.21-2.23Z"/>
          </g>
          <g>
            <path class="cls-7" d="M145.49,34a3.58,3.58,0,1,0,4.13,2.88A3.54,3.54,0,0,0,145.49,34Z"/>
            <path class="cls-11" d="M142,14.25a2.78,2.78,0,0,0-2.23,3.23l3.49,19.6a2.75,2.75,0,0,0,3.2,2.24h0a2.79,2.79,0,0,0,2.24-3.24l-3.48-19.6A2.77,2.77,0,0,0,142,14.25Z"/>
          </g>
          <g>
            <path class="cls-7" d="M125.25,37.67a3.59,3.59,0,1,0,4.14,2.89A3.55,3.55,0,0,0,125.25,37.67Z"/>
            <path class="cls-12" d="M121.76,18a2.78,2.78,0,0,0-2.25,3.21L123,40.78A2.75,2.75,0,0,0,126.2,43h0a2.8,2.8,0,0,0,2.26-3.23L125,20.18A2.75,2.75,0,0,0,121.76,18Z"/>
          </g>
          <g>
            <path class="cls-7" d="M105,41.36a3.58,3.58,0,1,0,4.12,2.88A3.53,3.53,0,0,0,105,41.36Z"/>
            <path class="cls-13" d="M101.55,21.66a2.77,2.77,0,0,0-2.25,3.22l3.48,19.6A2.78,2.78,0,0,0,106,46.71h0a2.78,2.78,0,0,0,2.23-3.23l-3.48-19.61a2.74,2.74,0,0,0-3.2-2.21Z"/>
          </g>
          <g>
            <path class="cls-7" d="M84.83,45.06A3.58,3.58,0,1,0,89,47.94,3.58,3.58,0,0,0,84.83,45.06Z"/>
            <path class="cls-14" d="M81.32,25.35a2.8,2.8,0,0,0-2.26,3.22l3.48,19.6a2.76,2.76,0,0,0,3.23,2.23h0A2.79,2.79,0,0,0,88,47.17l-3.49-19.6a2.74,2.74,0,0,0-3.21-2.23Z"/>
          </g>
          <g>
            <path class="cls-7" d="M64.59,48.75a3.57,3.57,0,0,0-2.87,4.16,3.54,3.54,0,0,0,4.13,2.88,3.58,3.58,0,0,0-1.26-7Z"/>
            <path class="cls-15" d="M61.09,29a2.79,2.79,0,0,0-2.24,3.23l3.49,19.59a2.77,2.77,0,0,0,3.2,2.25h0a2.81,2.81,0,0,0,2.23-3.24l-3.47-19.6A2.77,2.77,0,0,0,61.09,29Z"/>
          </g>
          <g>
            <path class="cls-7" d="M44.38,52.44a3.57,3.57,0,0,0-2.87,4.16,3.53,3.53,0,0,0,4.12,2.9,3.58,3.58,0,0,0,2.87-4.17A3.53,3.53,0,0,0,44.38,52.44Z"/>
            <path class="cls-16" d="M40.87,32.73A2.78,2.78,0,0,0,38.63,36l3.48,19.6a2.75,2.75,0,0,0,3.21,2.24h0a2.8,2.8,0,0,0,2.25-3.24L44.09,35a2.77,2.77,0,0,0-3.22-2.23Z"/>
          </g>
        </g>
      </g>
      <g>
        <path class="cls-17" d="M221.24,60.41,42.12,93.65a1.71,1.71,0,0,1-2-1.38l-.36-2a1.73,1.73,0,0,1,1.38-2L220.27,55a1.7,1.7,0,0,1,2,1.38l.36,2A1.73,1.73,0,0,1,221.24,60.41Z"/>
        <path class="cls-17" d="M223.81,80.34,46.67,113.21A2.72,2.72,0,0,1,43.51,111h0a2.76,2.76,0,0,1,2.19-3.19L222.84,75A2.72,2.72,0,0,1,226,77.15h0A2.75,2.75,0,0,1,223.81,80.34Z"/>
        <path class="cls-17" d="M227.38,100.08,50.24,133a2.72,2.72,0,0,1-3.16-2.19h0a2.75,2.75,0,0,1,2.19-3.18L226.41,94.71a2.72,2.72,0,0,1,3.16,2.19h0A2.75,2.75,0,0,1,227.38,100.08Z"/>
        <path class="cls-17" d="M230.94,119.83,53.81,152.7a2.72,2.72,0,0,1-3.16-2.19h0a2.75,2.75,0,0,1,2.19-3.19L230,114.45a2.72,2.72,0,0,1,3.16,2.19h0A2.75,2.75,0,0,1,230.94,119.83Z"/>
        <path class="cls-17" d="M234.51,139.58,57.37,172.45a2.72,2.72,0,0,1-3.16-2.19h0a2.75,2.75,0,0,1,2.19-3.18L233.54,134.2a2.72,2.72,0,0,1,3.16,2.19h0A2.75,2.75,0,0,1,234.51,139.58Z"/>
        <path class="cls-17" d="M238.07,159.33,60.93,192.19A2.72,2.72,0,0,1,57.77,190h0A2.75,2.75,0,0,1,60,186.81L237.1,153.94a2.72,2.72,0,0,1,3.16,2.19h0A2.76,2.76,0,0,1,238.07,159.33Z"/>
        <path class="cls-17" d="M241.64,179.07,64.5,211.94a2.72,2.72,0,0,1-3.16-2.19h0a2.75,2.75,0,0,1,2.19-3.19l177.14-32.87a2.72,2.72,0,0,1,3.16,2.19h0A2.75,2.75,0,0,1,241.64,179.07Z"/>
        <path class="cls-17" d="M245.2,198.81,68.06,231.68a2.72,2.72,0,0,1-3.16-2.2h0a2.75,2.75,0,0,1,2.18-3.18l177.14-32.87a2.72,2.72,0,0,1,3.16,2.19h0A2.75,2.75,0,0,1,245.2,198.81Z"/>
        <path class="cls-17" d="M248.77,218.56,71.63,251.43a2.73,2.73,0,0,1-3.16-2.19h0A2.76,2.76,0,0,1,70.65,246L247.8,213.19a2.72,2.72,0,0,1,3.16,2.19h0A2.75,2.75,0,0,1,248.77,218.56Z"/>
        <path class="cls-17" d="M252.33,238.31,75.19,271.18A2.72,2.72,0,0,1,72,269h0a2.76,2.76,0,0,1,2.19-3.19l177.14-32.87a2.72,2.72,0,0,1,3.16,2.19h0A2.75,2.75,0,0,1,252.33,238.31Z"/>
        <path class="cls-17" d="M256.89,257.87,77.76,291.11a1.71,1.71,0,0,1-2-1.38l-.36-2a1.73,1.73,0,0,1,1.38-2l179.12-33.24a1.71,1.71,0,0,1,2,1.38l.36,2A1.73,1.73,0,0,1,256.89,257.87Z"/>
      </g>
    </g>
  </g>
  <g>
    <g>
      <polygon class="cls-18" points="1.76 228.89 0 225.85 140.86 142.41 142.63 145.43 1.76 228.89"/>
      <polygon class="cls-19" points="3.53 231.91 1.76 228.89 142.63 145.43 144.39 148.47 3.53 231.91"/>
      <polygon class="cls-20" points="5.29 234.94 3.53 231.91 144.39 148.47 146.17 151.5 5.29 234.94"/>
    </g>
    <polygon class="cls-21" points="142.63 145.43 163.77 134.88 140.86 142.41 142.63 145.43"/>
    <polygon class="cls-22" points="163.77 134.88 144.39 148.47 142.63 145.43 163.77 134.88"/>
    <polygon class="cls-23" points="163.77 134.88 146.17 151.5 144.39 148.47 163.77 134.88"/>
    <path class="cls-24" d="M158.75,138.4a1.35,1.35,0,0,1-.19-.29,2.47,2.47,0,0,1-.25-.51,5.08,5.08,0,0,1-.26-.82l5.71-1.88-4.43,4.18A3.41,3.41,0,0,1,158.75,138.4Z"/>
  </g>
</svg>
